<svg aria-hidden="true" style="position:absolute;width:0;height:0;overflow:hidden" xmlns="http://www.w3.org/2000/svg">
    <defs>
        <symbol id="icon-logo" viewBox="5 5 490 490">
            <path d="M190 491C75 456 6 365 6 250 6 156 54 74 133 33c41-21 47-6 9 23-27 22-32 32-32 69 0 26-6 47-15 55-18 15-20 54-2 68 7 6 14 26 15 44 5 66 76 128 147 128s142-62 147-128c1-18 8-38 15-44 18-14 16-53-2-68-9-8-15-29-15-55 0-37-5-47-32-69-42-33-30-45 17-16 66 41 115 130 115 209 0 158-164 286-310 242z"/>
            <path d="M203 375c-18-8-33-18-33-24 0-11 54-31 85-31s85 20 85 31c0 12-62 39-87 39-10-1-33-7-50-15zM146 313c-3-4-6-17-6-30 0-23 1-23 115-23s115 0 115 23c0 34-9 38-41 22-36-19-112-19-148 0-16 8-31 11-35 8zM117 224c-16-17 11-24 89-24h84v-35c0-19 5-35 10-35 6 0 10 15 10 34 0 33 2 35 40 38 22 2 40 8 40 13 0 11-262 20-273 9z"/>
            <path d="M140 136c0-55 19-66 115-66s115 11 115 66c0 24-5 34-15 34-9 0-15-9-15-24 0-56-76-61-87-6-5 29-8 30-59 30h-54v-34zM202 23c6-32 108-29 108 2 0 11-13 15-56 15-47 0-55-3-52-17z"/>
        </symbol>
        <symbol id="icon-arrow-right" viewBox="0 0 32 32">
            <path d="M19.414 27.414l10-10a2 2 0 000-2.828l-10-10a2 2 0 10-2.828 2.828L23.172 14H4a2 2 0 100 4h19.172l-6.586 6.586c-.39.39-.586.902-.586 1.414s.195 1.024.586 1.414a2 2 0 002.828 0z"/>
        </symbol>
        <symbol id="icon-ellipse-white" viewBox="0 0 32 32">
            <path fill="#fff" style="fill:var(--color2, #fff)"
                d="M32 16c0 8.837-7.163 16-16 16S0 24.837 0 16 7.163 0 16 0s16 7.163 16 16z" />
        </symbol>
        <symbol id="icon-ellipse-grey" viewBox="0 0 32 32">
            <path fill="#d9d9d9" style="fill:var(--color3, #d9d9d9)"
                d="M32.021 16.01c0 8.842-7.168 16.01-16.01 16.01S.001 24.852.001 16.01C.001 7.168 7.169 0 16.011 0s16.01 7.168 16.01 16.01z" />
        </symbol>
        <symbol id="icon-ellipse-red" viewBox="0 0 32 32">
            <path fill="#c7133e" style="fill:var(--color6, #c7133e)"
                d="M32.126 16.063c0 8.871-7.192 16.063-16.063 16.063S0 24.934 0 16.063C0 7.192 7.192 0 16.063 0s16.063 7.192 16.063 16.063z" />
        </symbol>
        <symbol id="icon-right-red" viewBox="0 0 19 32">
            <path fill="none" stroke="#d41443" style="stroke:var(--color4, #d41443)" stroke-linejoin="round"
                stroke-linecap="round" stroke-width="6.4" d="m3.206 3.2 12.8 12.8-12.8 12.8" />
        </symbol>
        <symbol id="icon-right-white" viewBox="0 0 26 32">
            <path fill="none" stroke="#fff" style="stroke:var(--color2, #fff)" stroke-linejoin="round"
                stroke-linecap="round" stroke-width="6.4" d="M5.19 3.2 19.36 16 5.19 28.8" />
        </symbol>
        <symbol id="icon-quotes" viewBox="0 0 43 32">
            <path fill="#e1e1e1" style="fill:var(--color5, #e1e1e1)"
                d="M32.024-.005c1.929 0 3.751.52 5.466 1.561s3.108 2.538 4.18 4.489c1.029 1.952 1.544 4.251 1.544 6.896s-.643 5.226-1.929 7.742c-.429.911-1.2 2.081-2.316 3.513a63.351 63.351 0 0 1-3.215 3.708l-4.052 4.099-2.894-4.814a22.22 22.22 0 0 0 5.308-4.648l.03-.037c1.543-1.821 2.314-3.491 2.314-5.009 0-.781-.171-1.41-.514-1.887a8.366 8.366 0 0 1-5.016 1.627c-1.328 0-2.594-.412-3.794-1.236A8.635 8.635 0 0 1 24.2 12.92l-.022-.043c-.771-1.258-1.157-2.559-1.157-3.904 0-1.519.45-2.971 1.35-4.36a10.316 10.316 0 0 1 3.364-3.357l.044-.025C29.15.407 30.564-.005 32.022-.005zm-23.085 0c1.929 0 3.751.52 5.466 1.561s3.108 2.537 4.18 4.489c1.029 1.952 1.544 4.251 1.544 6.896 0 1.865-.236 3.535-.707 5.009-.472 1.518-1.286 3.101-2.444 4.749-1.115 1.561-2.165 2.862-3.151 3.904-.986 1.084-2.701 2.884-5.145 5.4l-2.894-4.814a22.24 22.24 0 0 0 5.308-4.648l.03-.037c1.543-1.821 2.315-3.491 2.315-5.009 0-.781-.172-1.41-.515-1.887a8.366 8.366 0 0 1-5.016 1.627c-1.328 0-2.594-.412-3.794-1.236A8.635 8.635 0 0 1 1.18 12.92l-.022-.043C.387 11.619.001 10.318.001 8.973c0-1.519.429-2.971 1.286-4.36a10.316 10.316 0 0 1 3.364-3.357l.045-.025C6.067.407 7.481-.005 8.94-.005z" />
        </symbol>
        <symbol id="icon-home" viewBox="0 0 35 32">
            <path fill="#d31342" style="fill:var(--color7, #d31342)"
                d="M34.284 15.623a1.573 1.573 0 0 0-.129-2.256l-.002-.002L19.366.428a1.832 1.832 0 0 0-1.186-.432c-.467 0-.894.174-1.219.461l.002-.002L2.128 14.057a1.567 1.567 0 0 0-.072 2.253l.374.387c.614.641 1.612.721 2.226.171l1.108-.993v14.536c0 .894.721 1.615 1.615 1.615h5.779c.891 0 1.615-.721 1.615-1.615V20.242h7.38v10.169c-.013.891.625 1.615 1.516 1.615h6.128c.891 0 1.612-.721 1.612-1.615V16.078l.686.603c.376.331 1.169.064 1.767-.595l.422-.462z" />
        </symbol>
        <symbol id="icon-facebook" viewBox="0 0 32 32">
            <path
                d="M16.007 32.015c8.841 0 16.007-7.167 16.007-16.007S24.847.001 16.007.001 0 7.168 0 16.008s7.167 16.007 16.007 16.007z" />
            <path fill="#fff" style="fill:var(--color2, #fff)"
                d="M20.456 15.989h-2.612v9.623h-3.957v-9.623h-1.881v-3.38h1.881v-2.188c0-1.565.739-4.016 3.992-4.016l2.93.012v3.282h-2.126c-.348 0-.839.176-.839.923v1.99h2.957l-.346 3.379z" />
        </symbol>
        <symbol id="icon-github" viewBox="0 0 32 32">
            <path
                d="M32.015 16.007c0 8.841-7.167 16.007-16.007 16.007S.001 24.847.001 16.007C.001 7.166 7.168 0 16.008 0s16.007 7.167 16.007 16.007z" />
            <path fill="#fff" style="fill:var(--color2, #fff)"
                d="M16.007 6.591c-5.172 0-9.416 4.244-9.416 9.416 0 4.413 3.097 8.423 7.209 9.416v-3.115a2.318 2.318 0 0 1-1.197-.031c-.556-.164-1.008-.535-1.345-1.1-.214-.361-.593-.753-.989-.724l-.097-1.099c.856-.073 1.595.522 2.034 1.259.196.329.421.521.709.605.278.083.577.043.926-.08.088-.698.408-.959.65-1.328-2.453-.365-3.43-1.667-3.818-2.693-.514-1.364-.238-3.068.67-4.145.018-.021.05-.075.038-.113-.417-1.26.09-2.301.109-2.411.481.141.559-.143 2.09.786l.264.159c.111.066.075.028.186.019a7.795 7.795 0 0 1 1.971-.276h.006a8.023 8.023 0 0 1 2.003.284l.086.009c-.008-.002.024-.006.075-.037 1.911-1.158 1.843-.78 2.356-.946.019.111.519 1.169.106 2.412-.056.171 1.657 1.74.708 4.258-.388 1.026-1.365 2.329-3.817 2.694.314.48.692.734.69 1.723v3.888c4.111-.993 7.209-5.003 7.209-9.416 0-5.172-4.244-9.416-9.416-9.416z" />
        </symbol>
        <symbol id="icon-telegram" viewBox="0 0 32 32">
            <path
                d="M32.015 16.007c0 8.841-7.167 16.007-16.007 16.007S.001 24.847.001 16.007C.001 7.166 7.168 0 16.008 0s16.007 7.167 16.007 16.007z" />
            <path fill="#fff" style="fill:var(--color2, #fff)"
                d="m12.873 18.384-.317 4.171c.455 0 .652-.183.888-.401l2.131-1.902 4.416 3.02c.81.421 1.381.199 1.601-.696L24.49 9.897c.258-1.118-.433-1.555-1.221-1.281l-17.04 6.088c-1.163.422-1.146 1.026-.198 1.301l4.357 1.265 10.119-5.91c.476-.295.91-.132.554.163l-8.185 6.86z" />
        </symbol>
        <symbol id="icon-burger-menu" viewBox="0 0 46 32">
            <path fill="none" stroke="#d41443" style="stroke:var(--color4, #d41443)" stroke-width="2.286"
                d="M0 2.304h45.714M0 16.018h45.714M0 29.732h45.714" />
        </symbol>
        <symbol id="icon-close" viewBox="0 0 32 32">
            <path fill="none" stroke="#fff" style="stroke:var(--color2, #fff)" stroke-width="2"
                d="m2.521 2.001 26.967 28.007m-27.487-.521L30.008 2.52" />
        </symbol>

        <symbol id="icon-person" viewBox="0 0 32 32">
            <path d="M16 16c4.42 0 8-3.58 8-8s-3.58-8-8-8c-4.42 0-8 3.58-8 8s3.58 8 8 8zM16 20c-5.34 0-16 2.68-16 8v2c0 1.1 0.9 2 2 2h28c1.1 0 2-0.9 2-2v-2c0-5.32-10.66-8-16-8z"></path>
        </symbol>
        <symbol id="icon-email" viewBox="0 0 43 32">
            <path d="M37.333 0h-32c-2.2 0-3.98 1.8-3.98 4l-0.020 24c0 2.2 1.8 4 4 4h32c2.2 0 4-1.8 4-4v-24c0-2.2-1.8-4-4-4zM36.533 8.5l-14.14 8.84c-0.64 0.4-1.48 0.4-2.12 0l-14.14-8.84c-0.5-0.32-0.8-0.86-0.8-1.44 0-1.34 1.46-2.14 2.6-1.44l13.4 8.38 13.4-8.38c1.14-0.7 2.6 0.1 2.6 1.44 0 0.58-0.3 1.12-0.8 1.44z"></path>
        </symbol>
        <symbol id="icon-phone" viewBox="0 0 32 32">
            <path d="M27.419 20.852l-4.201-0.48c-1.009-0.116-2.002 0.232-2.713 0.943l-3.044 3.044c-4.681-2.382-8.519-6.203-10.901-10.901l3.060-3.060c0.711-0.711 1.059-1.704 0.943-2.713l-0.48-4.168c-0.198-1.671-1.604-2.928-3.292-2.928h-2.862c-1.869 0-3.424 1.555-3.308 3.424 0.877 14.126 12.174 25.407 26.284 26.284 1.869 0.116 3.424-1.439 3.424-3.308v-2.861c0.016-1.671-1.241-3.077-2.911-3.275z"></path>
        </symbol>

        <symbol id="icon-check" viewBox="0 0 42 32">
            <path fill="#fff" style="fill: var(--color1, #fff); stroke: var(--color1, #fff)" stroke="#fff" stroke-linejoin="miter" stroke-linecap="butt" stroke-miterlimit="4" stroke-width="0.64" d="M6.262 15.206l-0.221-0.211-0.221 0.208-3.085 2.925 0.243 0.234 11.408 10.88 0.221-0.211 24.256-23.139-0.243-0.23-3.043-2.902-0.221 0.211-20.97 19.987-8.125-7.75z"></path>
        </symbol>
        <symbol id="arrow-left2" viewBox="0 0 32 32">
<path d="M12.586 27.414l-10-10c-0.781-0.781-0.781-2.047 0-2.828l10-10c0.781-0.781 2.047-0.781 2.828 0s0.781 2.047 0 2.828l-6.586 6.586h19.172c1.105 0 2 0.895 2 2s-0.895 2-2 2h-19.172l6.586 6.586c0.39 0.39 0.586 0.902 0.586 1.414s-0.195 1.024-0.586 1.414c-0.781 0.781-2.047 0.781-2.828 0z"></path>
</symbol>

    </defs>
</svg>